<?xml version="1.0" standalone="no"?>
<svg xmlns="http://www.w3.org/2000/svg" height="1195pt" preserveAspectRatio="xMidYMid meet" viewBox="0 0 1920 1195" width="1920pt">
  <path d="m9396 11701c-102-138-194-259-204-269-11-11-38-44-61-74l-41-55v-106-107h-120-120v-95-95h120 120v-85-85h-200-201l3-116 3-116h98l97 1v-100-99h-220-220v-115-115h120 120v-160-160h-129-129l-104 110c-58 61-108 110-111 110-4 0-6-147-5-327l3-328h108 107v-167-168h-115-116l-117 82c-64 45-118 85-120 90-2 4-10 8-18 8s-14 5-14 10c0 6-3 10-7 10-5 0-8-144-8-319v-319l138-68 137-68v-188-188l-202 2-202 3-70 107c-39 59-74 107-78 108-5 0-8-156-8-347v-346l75-74 75-73v-200-200h-46c-45 0-49 3-170 115-69 63-129 115-135 115-5 0-9-128-9-322l1-323 179-164 180-165v-123-123h-168-167l-140 129-140 129-3-450-2-450 32-37c18-20 62-61 97-91s119-108 185-173c66-64 123-117 126-117s44-38 93-84l87-85v-95-96h-462-463l-219 255c-120 140-220 255-222 255s-4-398-4-884v-884l158-123c86-67 182-142 214-166l56-43h286 286v-50-50h-1520-1520l-2 477-3 476-150-226-150-226h-119l-119-1 39 35c21 19 75 64 121 100l83 65v525c0 343-3 525-10 525-5 0-10-5-10-11 0-14-160-199-171-199-5 0-9-5-9-11s-15-28-32-49l-33-40h-272-273l1 63 1 62 179 163 178 164 3 274c2 151 1 274 0 274-2 0-40-34-85-75l-80-75h-99-98v69 69l105 97 105 97v194c0 107-3 194-8 194-4 0-39-31-77-70-52-52-77-70-97-70h-28v119 118l45 42 45 41v205c0 113-4 205-9 205-4 0-27-27-50-60l-42-60h-120-119v106 105l85 40 85 40v189c0 210 0 211-60 159-84-74-114-89-184-89h-66v101 101l65-4 65-3v198c0 108-2 197-5 197s-35-31-71-69l-65-69-72 1-72 2-3 98-3 97h76 75v70 70h-130-130v55 55h55 55v70 70h-115-115v50 50h75 75v55 55h-75-75v65 66l-101 137c-56 75-112 147-124 160-13 12-33 38-46 57s-27 34-31 32c-4-1-73-89-153-196l-145-194v-64-63h-75-75v-55-54l73-3 72-3 3-47 3-48h-115-116v-70-70h55 55v-55-55h-130-130v-70-69l73-3 72-3v-95-95l-66-2-66-1-69 69c-38 38-72 69-76 69-5 0-8-89-8-197v-198l65 3 65 4v-101-101h-63c-61 0-66 2-150 61l-87 60v-190-191l80-36 80-37v-108-109h-119c-118 0-119 0-137 27-9 15-28 39-41 53s-23 28-23 32c0 5-4 8-10 8s-10-74-10-203v-203l50-49 50-49v-113-113h-32c-27 0-47 14-106 70-40 39-75 70-78 70-2 0-4-87-4-194v-193l110-99 109-99 1-67v-68h-107l-108 1-79 74c-44 41-81 75-83 75s-3-121-3-268v-268l150-138c82-75 150-141 150-147 0-5 6-9 13-9s25-13 40-28c23-24 27-37 27-85v-57h-274-275l-133 156-133 155-3-528-2-528 37-32c21-17 49-38 62-45 14-7 34-22 45-33 12-11 39-34 61-52l40-32-117-1h-117l-150 226-151 225v-850-851h145 145v-1080-1080h1890 1890v80 80h1815 1815v-80-80h1895 1895v80 80l1817-2 1816-3-2-77-2-78h1890 1891v1080 1080h150 150v852c0 728-2 850-14 838-8-8-78-111-156-227l-141-213h-117l-117 1 30 25c17 14 72 57 123 95l92 71v531c0 518 0 531-19 512-10-11-71-82-135-158l-118-137h-274-274v58c0 57 1 59 43 91 23 17 91 81 151 141 61 61 113 110 117 110s21 14 38 31l31 31-2 269-3 268-80-74-80-74-107-1h-108v68l1 67 109 99 110 99v194 195l-47-40c-27-22-61-54-77-71-22-23-39-31-63-31h-33v113 113l50 49 50 49v203c0 112-3 203-7 203-5 0-21-19-38-43-58-81-47-77-177-77h-118v108 109l83 39 82 39 3 188c1 103 0 187-3 187-4 0-45-27-92-60-83-58-89-60-150-60h-63v101 101l65-4 65-3v198c0 108-3 197-8 197-4 0-39-32-77-71l-70-70-65 3-65 3v95 95l73 3 72 3v69 70h-130-130v55 55h58 57v70 70h-118-118l3 48 3 47 73 3 72 3v54 55h-75-75v64 63l-145 194c-80 107-149 195-153 196-7 2-34-31-202-254l-100-132v-66-65h-75-75v-55-55h75 75v-50-50h-115-115v-70-70h55 55v-55-55h-130-130v-70-70h75 76l-3-97-3-98-72-1-73-2-65 69c-35 38-67 69-70 69s-5-88-5-195v-194l66-3 66-3v-95-95l-66-3c-66-3-102 11-141 53-18 20-84 65-94 65-8 0-11-62-11-190v-189l85-40 85-40v-105-106h-119-120l-42 60c-23 33-46 60-50 60-5 0-9-92-9-205v-205l45-41 45-42v-118c0-117 0-119-22-119-14 0-52 27-100 70-42 39-79 70-82 70s-6-87-6-194v-194l105-97 105-97v-69-69h-98-99l-81 76-82 76v-275-275l179-163 179-164 1-62 1-63h-269c-267 0-269 0-284 23-8 12-65 76-126 142s-111 126-111 132c0 7-5 13-10 13-7 0-9-178-8-527l3-527 90-70c50-39 106-83 125-98l35-28h-128c-71 0-126 4-123 8 3 5-4 18-14 30-11 12-20 26-20 32 0 5-4 10-10 10-5 0-10 5-10 11s-7 17-15 26c-8 8-64 87-123 176l-107 160-3-476-2-477h-1520-1520v50 50h288l287 1 213 165 212 166v884c0 486-2 884-4 884s-102-115-222-255l-219-255h-462-463v98 97l205 188c113 104 205 193 205 198s5 9 11 9 53 39 105 87l94 87 2 458c2 252 1 458-2 458-3-1-68-59-145-130l-140-130h-167-168v123 123l180 166 181 166 2 321c1 243-1 321-10 321-6 0-68-52-137-115-121-112-125-115-170-115h-46v201 201l75 70 75 70v349c0 192-3 349-7 348-5 0-40-48-79-107l-71-107-201-3-202-2v188 188l140 69 140 69v318c0 186-4 318-9 318s-11-4-13-8c-1-4-63-49-135-100l-133-92h-115-115v168 167l110-3 110-3v330c0 182-3 331-7 331s-53-49-111-110l-104-110h-129-129v160 160h120 120v115 115h-220-220v99 100l98-1h97l3 116 3 116h-201-200v85 85h123 122v95 95h-123-123l2 105 1 105-58 77c-33 42-66 84-75 92-9 9-94 121-188 249-95 127-179 232-186 232s-97-112-199-249z" transform="matrix(.1 0 0 -.1 0 1195)" fill="#F35580" stroke="none" stroke-width="2" vector-effect="non-scaling-stroke"/>
</svg>
